<svg width="104" height="104" viewBox="0 0 104 104" fill="none" xmlns="http://www.w3.org/2000/svg">
<rect width="104" height="104" rx="14" fill="#D3F4FF"/>
<path d="M55.1298 59.0852C55.1298 57.9242 54.7855 56.7893 54.1405 55.8239C53.4954 54.8586 52.5786 54.1061 51.506 53.6618C50.4333 53.2175 49.253 53.1013 48.1143 53.3278C46.9756 53.5543 45.9296 54.1134 45.1086 54.9344C44.2877 55.7553 43.7286 56.8013 43.5021 57.94C43.2756 59.0787 43.3918 60.259 43.8361 61.3317C44.2804 62.4043 45.0328 63.3212 45.9982 63.9662C46.9636 64.6112 48.0985 64.9555 49.2595 64.9555C50.8159 64.9537 52.308 64.3347 53.4085 63.2342C54.509 62.1337 55.128 60.6416 55.1298 59.0852ZM49.2595 63.643C48.3581 63.643 47.4769 63.3757 46.7274 62.8749C45.9779 62.3741 45.3937 61.6622 45.0487 60.8294C44.7038 59.9966 44.6135 59.0802 44.7894 58.1961C44.9652 57.312 45.3993 56.4998 46.0367 55.8624C46.6741 55.225 47.4862 54.7909 48.3704 54.6151C49.2545 54.4392 50.1709 54.5295 51.0037 54.8744C51.8365 55.2194 52.5484 55.8036 53.0492 56.5531C53.55 57.3026 53.8173 58.1838 53.8173 59.0852C53.816 60.2936 53.3354 61.4522 52.4809 62.3066C51.6265 63.1611 50.4679 63.6417 49.2595 63.643Z" fill="#2FB7E4"/>
<path d="M73.5625 66.2718H62.1025V37.0712C62.1024 36.8972 62.0333 36.7304 61.9102 36.6073C61.7872 36.4843 61.6203 36.4151 61.4463 36.415H58.3525V33.8215C58.3525 33.8185 58.3525 33.8155 58.3525 33.8125V30.4375C58.3525 30.2635 58.2834 30.0965 58.1603 29.9735C58.0373 29.8504 57.8703 29.7812 57.6963 29.7812H54.3213C54.1473 29.7813 53.9804 29.8505 53.8574 29.9736C53.7343 30.0966 53.6651 30.2635 53.665 30.4375V31.2812H51.6025V30.4375C51.6025 30.2635 51.5334 30.0965 51.4103 29.9735C51.2873 29.8504 51.1203 29.7812 50.9463 29.7812H44.1963C44.0223 29.7813 43.8554 29.8505 43.7324 29.9736C43.6093 30.0966 43.5401 30.2635 43.54 30.4375V31.2812H40.8213C40.6473 31.2813 40.4804 31.3505 40.3574 31.4736C40.2343 31.5966 40.1651 31.7635 40.165 31.9375V36.415H37.0713C36.8973 36.4151 36.7304 36.4843 36.6074 36.6073C36.4843 36.7304 36.4151 36.8972 36.415 37.0712V71.3125C36.4159 72.083 36.7224 72.8217 37.2672 73.3665C37.8121 73.9114 38.5508 74.2179 39.3213 74.2188H59.1963C59.9668 74.2179 60.7055 73.9114 61.2503 73.3665C61.7952 72.8217 62.1016 72.083 62.1025 71.3125V70.9593H73.5625C73.7366 70.9591 73.9034 70.89 74.0265 70.7669C74.1495 70.6439 74.2187 70.477 74.2188 70.303V66.928C74.2188 66.754 74.1496 66.587 74.0266 66.464C73.9035 66.3409 73.7366 66.2718 73.5625 66.2718ZM55.9597 69.6468V67.5843H61.4373H61.4463H61.4553H70.6563V69.6468H55.9597ZM54.6472 69.6468H52.5847V67.5843H54.6472V69.6468ZM37.7275 41.737L40.396 41.6838L41.7547 44.8045C41.8056 44.9214 41.8894 45.0209 41.996 45.0909C42.1025 45.1609 42.2272 45.1983 42.3547 45.1986H56.1625C56.29 45.1983 56.4147 45.1609 56.5212 45.0909C56.6278 45.0209 56.7116 44.9214 56.7625 44.8045L58.1212 41.6838L60.7878 41.7366V49.4373H37.7275V41.737ZM57.04 40.8843L55.7332 43.8861H54.9775V35.3226C54.9775 35.3193 54.9775 35.3166 54.9775 35.3133V34.4688H57.04V40.8843ZM51.6025 35.9695H53.665V43.8861H51.6025V35.9695ZM53.665 34.657H51.6025V32.5945H53.665V34.657ZM50.29 43.8861H48.2275V34.4688H50.29V43.8861ZM46.915 43.8861H44.8525V35.3226C44.8525 35.3193 44.8525 35.3166 44.8525 35.3133V34.4688H46.915V43.8861ZM43.54 34.657H41.4775V32.5945H43.54V34.657ZM43.54 35.9695V43.8861H42.7863L41.4775 40.8801V35.9676L43.54 35.9695ZM60.79 37.7275V40.4241L58.3525 40.375V37.7275H60.79ZM57.04 31.0938V33.1562H54.9775V31.0938H57.04ZM50.29 31.9375V33.1562H48.2275V31.0938H50.29V31.9375ZM46.915 31.0938V33.1562H44.8525V31.0938H46.915ZM40.165 37.7275V40.375L37.7275 40.4234V37.7275H40.165ZM60.79 71.3125C60.7895 71.735 60.6215 72.1401 60.3227 72.4389C60.0239 72.7377 59.6188 72.9058 59.1963 72.9062H39.3213C38.8988 72.9058 38.4937 72.7377 38.1949 72.4389C37.8961 72.1401 37.728 71.735 37.7275 71.3125V50.7498H60.79V66.2718H51.9284C51.7544 66.2718 51.5874 66.3409 51.4644 66.464C51.3413 66.587 51.2722 66.754 51.2722 66.928V70.303C51.2723 70.477 51.3414 70.6439 51.4645 70.7669C51.5875 70.89 51.7544 70.9591 51.9284 70.9593H60.79V71.3125ZM72.9063 69.6468H71.9688V67.5843H72.9063V69.6468Z" fill="#2FB7E4"/>
<path d="M66.9869 56.5H68.4059C68.7042 56.5 68.9904 56.6185 69.2014 56.8295C69.4123 57.0405 69.5309 57.3266 69.5309 57.625C69.5309 57.9234 69.4123 58.2095 69.2014 58.4205C68.9904 58.6315 68.7042 58.75 68.4059 58.75H67.4335C66.8268 58.75 66.245 58.991 65.816 59.42C65.387 59.849 65.146 60.4308 65.146 61.0375C65.146 61.6442 65.387 62.226 65.816 62.655C66.245 63.084 66.8268 63.325 67.4335 63.325H70.2932C70.6876 63.3255 71.0657 63.4824 71.3445 63.7613C71.6233 64.0402 71.7801 64.4183 71.7805 64.8126C71.7805 64.9867 71.8496 65.1536 71.9727 65.2766C72.0958 65.3997 72.2627 65.4689 72.4368 65.4689C72.6108 65.4689 72.7777 65.3997 72.9008 65.2766C73.0239 65.1536 73.093 64.9867 73.093 64.8126C73.0921 64.0703 72.7969 63.3587 72.272 62.8337C71.7472 62.3088 71.0355 62.0135 70.2932 62.0125H67.4335C67.1749 62.0125 66.9269 61.9098 66.7441 61.7269C66.5612 61.5441 66.4585 61.2961 66.4585 61.0375C66.4585 60.7789 66.5612 60.5309 66.7441 60.3481C66.9269 60.1652 67.1749 60.0625 67.4335 60.0625H68.4059C69.0523 60.0625 69.6723 59.8057 70.1294 59.3486C70.5866 58.8914 70.8434 58.2715 70.8434 57.625C70.8434 56.9785 70.5866 56.3585 70.1294 55.9014C69.6723 55.4443 69.0523 55.1875 68.4059 55.1875H66.9869C66.5926 55.1869 66.2146 55.0299 65.9359 54.7511C65.6572 54.4722 65.5004 54.0942 65.5 53.6999C65.5 53.5258 65.4309 53.3589 65.3078 53.2358C65.1847 53.1128 65.0178 53.0436 64.8438 53.0436C64.6697 53.0436 64.5028 53.1128 64.3797 53.2358C64.2566 53.3589 64.1875 53.5258 64.1875 53.6999C64.1884 54.4421 64.4836 55.1537 65.0084 55.6786C65.5331 56.2035 66.2446 56.4989 66.9869 56.5Z" fill="#2FB7E4"/>
</svg>
