<svg width="104" height="104" viewBox="0 0 104 104" fill="none" xmlns="http://www.w3.org/2000/svg">
<rect width="104" height="104" rx="14" fill="#FFD0D1"/>
<mask id="mask0_89_255" style="mask-type:luminance" maskUnits="userSpaceOnUse" x="32" y="32" width="40" height="40">
<path d="M32 31.9999H72V71.9999H32V31.9999Z" fill="white"/>
</mask>
<g mask="url(#mask0_89_255)">
<path d="M69.4121 59.4817V69.0702C69.4121 70.3646 68.3627 71.4139 67.0683 71.4139H36.9318C35.6374 71.4139 34.588 70.3646 34.588 69.0702V65.8098" stroke="#F5282C" stroke-width="1.17187" stroke-miterlimit="10" stroke-linecap="round" stroke-linejoin="round"/>
<path d="M60.6924 69.0702H36.9358C35.6392 69.0702 34.5881 68.0191 34.5881 66.7225V37.6111C34.5881 36.3146 35.6392 35.2635 36.9358 35.2635H67.0645C68.3611 35.2635 69.4122 36.3146 69.4122 37.6111V60.3503C69.4122 60.973 69.1648 61.5702 68.7245 62.0104L62.3524 68.3825C61.9121 68.8228 61.315 69.0702 60.6924 69.0702Z" stroke="#F5282C" stroke-width="1.17187" stroke-miterlimit="10" stroke-linecap="round" stroke-linejoin="round"/>
<path d="M59.7302 69.0702C60.7926 69.0702 61.6538 68.209 61.6538 67.1466V63.2354C61.6538 62.1731 62.515 61.3118 63.5773 61.3118H67.4886C68.5509 61.3118 69.4121 60.4507 69.4121 59.3883" stroke="#F5282C" stroke-width="1.17187" stroke-miterlimit="10" stroke-linecap="round" stroke-linejoin="round"/>
<path d="M41.5158 43.6368H34.5881" stroke="#F5282C" stroke-width="1.17187" stroke-miterlimit="10" stroke-linecap="round" stroke-linejoin="round"/>
<path d="M69.4122 43.6368H39.8595" stroke="#F5282C" stroke-width="1.17187" stroke-miterlimit="10" stroke-linecap="round" stroke-linejoin="round"/>
<path d="M41.2227 38.768C40.5622 38.768 40.0269 38.2326 40.0269 37.5722V33.7816C40.0269 33.1212 40.5622 32.5858 41.2227 32.5858H41.4917C42.1522 32.5858 42.6876 33.1212 42.6876 33.7816V35.2634" stroke="#F5282C" stroke-width="1.17187" stroke-miterlimit="10" stroke-linecap="round" stroke-linejoin="round"/>
<path d="M62.5085 38.768C61.848 38.768 61.3126 38.2326 61.3126 37.5722V33.7816C61.3126 33.1212 61.848 32.5858 62.5085 32.5858H62.7775C63.4379 32.5858 63.9733 33.1212 63.9733 33.7816V35.2634" stroke="#F5282C" stroke-width="1.17187" stroke-miterlimit="10" stroke-linecap="round" stroke-linejoin="round"/>
<path d="M41.452 51.0587H38.6618C38.3536 51.0587 38.1038 50.8089 38.1038 50.5007V47.7105C38.1038 47.4023 38.3536 47.1525 38.6618 47.1525H41.452C41.7602 47.1525 42.01 47.4023 42.01 47.7105V50.5007C42.01 50.8089 41.7602 51.0587 41.452 51.0587Z" stroke="#F5282C" stroke-width="1.17187" stroke-miterlimit="10" stroke-linecap="round" stroke-linejoin="round"/>
<path d="M49.414 51.0587H46.6238C46.3156 51.0587 46.0658 50.8089 46.0658 50.5007V47.7105C46.0658 47.4023 46.3156 47.1525 46.6238 47.1525H49.414C49.7222 47.1525 49.972 47.4023 49.972 47.7105V50.5007C49.972 50.8089 49.7222 51.0587 49.414 51.0587Z" stroke="#F5282C" stroke-width="1.17187" stroke-miterlimit="10" stroke-linecap="round" stroke-linejoin="round"/>
<path d="M57.3763 51.0587H54.5861C54.2779 51.0587 54.0281 50.8089 54.0281 50.5007V47.7105C54.0281 47.4023 54.2779 47.1525 54.5861 47.1525H57.3763C57.6845 47.1525 57.9343 47.4023 57.9343 47.7105V50.5007C57.9343 50.8089 57.6845 51.0587 57.3763 51.0587Z" stroke="#F5282C" stroke-width="1.17187" stroke-miterlimit="10" stroke-linecap="round" stroke-linejoin="round"/>
<path d="M65.3384 51.0587H62.5483C62.2401 51.0587 61.9902 50.8089 61.9902 50.5007V47.7105C61.9902 47.4023 62.2401 47.1525 62.5483 47.1525H65.3384C65.6466 47.1525 65.8965 47.4023 65.8965 47.7105V50.5007C65.8965 50.8089 65.6466 51.0587 65.3384 51.0587Z" stroke="#F5282C" stroke-width="1.17187" stroke-miterlimit="10" stroke-linecap="round" stroke-linejoin="round"/>
<path d="M41.452 58.3066H38.6618C38.3536 58.3066 38.1038 58.0568 38.1038 57.7486V54.9584C38.1038 54.6502 38.3536 54.4004 38.6618 54.4004H41.452C41.7602 54.4004 42.01 54.6502 42.01 54.9584V57.7486C42.01 58.0568 41.7602 58.3066 41.452 58.3066Z" stroke="#F5282C" stroke-width="1.17187" stroke-miterlimit="10" stroke-linecap="round" stroke-linejoin="round"/>
<path d="M49.414 58.3066H46.6238C46.3156 58.3066 46.0658 58.0568 46.0658 57.7486V54.9584C46.0658 54.6502 46.3156 54.4004 46.6238 54.4004H49.414C49.7222 54.4004 49.972 54.6502 49.972 54.9584V57.7486C49.972 58.0568 49.7222 58.3066 49.414 58.3066Z" stroke="#F5282C" stroke-width="1.17187" stroke-miterlimit="10" stroke-linecap="round" stroke-linejoin="round"/>
<path d="M57.3763 58.3066H54.5861C54.2779 58.3066 54.0281 58.0568 54.0281 57.7486V54.9584C54.0281 54.6502 54.2779 54.4004 54.5861 54.4004H57.3763C57.6845 54.4004 57.9343 54.6502 57.9343 54.9584V57.7486C57.9343 58.0568 57.6845 58.3066 57.3763 58.3066Z" stroke="#F5282C" stroke-width="1.17187" stroke-miterlimit="10" stroke-linecap="round" stroke-linejoin="round"/>
<path d="M65.3384 58.4806H62.5483C62.2401 58.4806 61.9902 58.2307 61.9902 57.9225V55.1324C61.9902 54.8242 62.2401 54.5743 62.5483 54.5743H65.3384C65.6466 54.5743 65.8965 54.8242 65.8965 55.1324V57.9225C65.8965 58.2307 65.6466 58.4806 65.3384 58.4806Z" stroke="#F5282C" stroke-width="1.17187" stroke-miterlimit="10" stroke-linecap="round" stroke-linejoin="round"/>
<path d="M41.452 65.5546H38.6618C38.3536 65.5546 38.1038 65.3047 38.1038 64.9965V62.2064C38.1038 61.8982 38.3536 61.6483 38.6618 61.6483H41.452C41.7602 61.6483 42.01 61.8982 42.01 62.2064V64.9965C42.01 65.3047 41.7602 65.5546 41.452 65.5546Z" stroke="#F5282C" stroke-width="1.17187" stroke-miterlimit="10" stroke-linecap="round" stroke-linejoin="round"/>
<path d="M49.414 65.5546H46.6238C46.3156 65.5546 46.0658 65.3047 46.0658 64.9965V62.2064C46.0658 61.8982 46.3156 61.6483 46.6238 61.6483H49.414C49.7222 61.6483 49.972 61.8982 49.972 62.2064V64.9965C49.972 65.3047 49.7222 65.5546 49.414 65.5546Z" stroke="#F5282C" stroke-width="1.17187" stroke-miterlimit="10" stroke-linecap="round" stroke-linejoin="round"/>
<path d="M54.0281 65.011V62.2064C54.0281 61.8981 54.2779 61.6483 54.5861 61.6483H57.3763C57.6845 61.6483 57.9343 61.8981 57.9343 62.2064V64.9965C57.9343 65.3047 57.6845 65.5546 57.3763 65.5546H54.5861C54.2779 65.5546 54.0281 65.3047 54.0281 64.9965" stroke="#F5282C" stroke-width="1.17187" stroke-miterlimit="10" stroke-linecap="round" stroke-linejoin="round"/>
</g>
</svg>
