<svg width="24" height="24" viewBox="0 0 24 24" fill="none" xmlns="http://www.w3.org/2000/svg">
<path d="M20.157 5H8.84307C7.82681 5 7 5.67268 7 6.50051C7 7.32732 7.82681 8 8.84307 8H20.1569C21.1732 8 22 7.32732 22 6.50051C22 5.67265 21.1732 5 20.157 5Z" fill="black"/>
<path d="M3.50002 5C2.67293 5 2 5.6729 2 6.5C2 7.3271 2.67293 8 3.50002 8C4.3271 8 5 7.3271 5 6.5C5 5.6729 4.3271 5 3.50002 5Z" fill="black"/>
<path d="M3.50002 11C2.67293 11 2 11.6729 2 12.5C2 13.3271 2.67293 14 3.50002 14C4.3271 14 5 13.3271 5 12.5C5 11.6729 4.3271 11 3.50002 11Z" fill="black"/>
<path d="M3.50002 17C2.67293 17 2 17.6729 2 18.5C2 19.3271 2.67293 20 3.50002 20C4.3271 20 5 19.3271 5 18.5C5 17.6729 4.3271 17 3.50002 17Z" fill="black"/>
<path d="M20.157 11H8.84307C7.82681 11 7 11.6727 7 12.5005C7 13.3273 7.82681 14 8.84307 14H20.1569C21.1732 14 22 13.3273 22 12.5005C22 11.6726 21.1732 11 20.157 11Z" fill="black"/>
<path d="M20.157 17H8.84307C7.82681 17 7 17.6727 7 18.5005C7 19.3273 7.82681 20 8.84307 20H20.1569C21.1732 20 22 19.3273 22 18.5005C22 17.6727 21.1732 17 20.157 17Z" fill="black"/>
</svg>
