<svg width="44" height="44" viewBox="0 0 44 44" fill="none" xmlns="http://www.w3.org/2000/svg">
<rect width="44" height="44" rx="12" fill="#FFE2F7"/>
<g clip-path="url(#clip0_89_161)">
<path d="M15.4326 33.2176C14.8715 34.5658 14.5666 36.0068 14.5334 37.4667C14.5334 37.7612 14.7722 38 15.0667 38H31.0667C31.2235 38 31.3724 37.9309 31.4737 37.8112C31.575 37.6915 31.6185 37.5333 31.5926 37.3787C31.5488 37.112 30.4886 30.8507 28.344 26.5621C27.8536 25.4752 27.6043 24.2949 27.6134 23.1024C28.7417 23.3273 29.881 23.4928 31.0267 23.5984L31.0667 23.6C31.3113 23.6 31.5246 23.4336 31.584 23.1963C32.4432 19.7611 32.2875 15.0048 32.1846 11.8576C32.1574 11.0203 32.1312 10.2939 32.1312 9.74561C32.1298 8.69416 31.7197 7.68443 30.9878 6.92961C30.4511 6.34722 29.6986 6.01108 28.9067 6.00001H22.6224C22.0615 5.99839 21.5413 6.29247 21.2534 6.77387C20.5455 7.98604 19.5838 9.03073 18.4342 9.83627C18.1517 10.023 17.8507 10.1801 17.536 10.3051C16.2673 10.7999 15.4597 12.0535 15.5339 13.4133C15.5701 14.4214 16.01 15.3725 16.7547 16.0528C16.6432 16.0926 16.5342 16.139 16.4283 16.192C15.774 16.5077 15.2975 17.1023 15.1318 17.8096C12.6595 19.4386 11.2189 22.2416 11.3334 25.2C11.3334 29.6267 13.4694 31.9845 15.4326 33.2176ZM22.1654 7.32587C22.2616 7.16521 22.4351 7.06682 22.6224 7.06667H25.1643C25.0534 8.09974 24.5776 10.2667 22.5334 10.2667C21.6639 10.2662 20.7965 10.1839 19.9424 10.0208C20.8126 9.23735 21.5617 8.32916 22.1654 7.32587ZM16.6 13.3771C16.5393 12.4675 17.0778 11.6244 17.9286 11.2971C18.2316 11.1734 18.524 11.025 18.8027 10.8533C20.0216 11.172 21.2762 11.3333 22.536 11.3333C25.1979 11.3333 26.0918 8.78561 26.2427 7.06667H27.1979C26.3456 10.584 26.1729 14.2318 26.6891 17.8139C25.8636 17.6546 25.0283 17.5518 24.1888 17.5061C23.5082 17.486 22.8318 17.3925 22.1712 17.2272C21.7232 17.0779 21.2646 16.8896 20.8251 16.7077C20.1319 16.3952 19.4111 16.1477 18.672 15.9685C17.5037 15.6285 16.6747 14.5916 16.6 13.3771ZM16.9051 17.144C17.3653 16.9316 17.8832 16.8792 18.3766 16.9952C18.4203 17.0097 18.4656 17.0189 18.5115 17.0224C19.1639 17.1923 19.8008 17.417 20.4155 17.6939C20.8742 17.8827 21.3483 18.0784 21.8315 18.2395C22.5748 18.4361 23.3382 18.5469 24.1067 18.5696C25.6262 18.6832 27.3494 18.8117 28.6134 19.76C28.7658 19.8743 28.9677 19.8987 29.1429 19.8238C29.3181 19.749 29.4401 19.5863 29.4629 19.3971C29.4857 19.208 29.4058 19.021 29.2534 18.9067C28.8168 18.5866 28.3365 18.331 27.8272 18.1477C27.2119 14.4619 27.3696 10.6884 28.2902 7.06667H28.9067C29.411 7.0827 29.8874 7.30222 30.2272 7.67521C30.7568 8.23069 31.0567 8.96593 31.0667 9.73334C31.0667 10.3029 31.0907 11.0416 31.12 11.8923C31.2166 14.8427 31.36 19.2336 30.6555 22.4891C29.04 22.3083 23.4192 21.52 18.5814 18.8976C17.9257 18.3189 17.1218 17.9342 16.2598 17.7867C16.3959 17.5062 16.6235 17.2805 16.9051 17.1467V17.144ZM15.592 18.8H15.6C16.4469 18.8231 17.2581 19.1457 17.8896 19.7104C17.9258 19.7463 17.9667 19.777 18.0112 19.8016C20.6972 21.2135 23.5649 22.2487 26.5334 22.8779C26.4988 24.3113 26.7906 25.7338 27.3867 27.0379C29.079 30.4171 30.1008 35.2347 30.4267 36.9333H15.6272C15.7093 35.8345 15.9612 34.755 16.3739 33.7333C18.0262 34.5017 19.8286 34.8933 21.6507 34.88C22.1443 34.88 22.6375 34.8526 23.128 34.7979C23.3174 34.7767 23.4812 34.6561 23.5576 34.4815C23.6339 34.3069 23.6114 34.1049 23.4984 33.9514C23.3853 33.798 23.199 33.7165 23.0096 33.7376C20.7313 34.0189 18.4213 33.6025 16.3846 32.5435C14.5659 31.5301 12.4 29.4352 12.4 25.2C12.4 22.4229 13.4822 20.2768 15.592 18.8Z" fill="#FF57D2"/>
<path d="M16.9558 29.5925C17.2587 29.8453 17.5808 30.1147 17.9195 30.4048C18.1191 30.5755 18.4133 30.5755 18.6128 30.4048C18.9515 30.1147 19.2736 29.8453 19.5766 29.5925C21.36 28.1067 22.5334 27.1253 22.5334 25.6043C22.5583 24.9477 22.3179 24.3087 21.8664 23.8313C21.4149 23.354 20.7903 23.0784 20.1334 23.0667C19.4272 23.0657 18.7518 23.3561 18.2667 23.8693C17.7816 23.3561 17.1063 23.0657 16.4 23.0667C15.7431 23.0784 15.1185 23.354 14.667 23.8313C14.2155 24.3087 13.9752 24.9477 14 25.6043C14 27.1253 15.1734 28.1067 16.9558 29.5925ZM16.4 24.1333C16.9831 24.1537 17.5121 24.4806 17.791 24.9931C17.8817 25.1707 18.064 25.2828 18.2635 25.2837H18.2667C18.4668 25.2829 18.6497 25.1709 18.7414 24.9931C19.0204 24.4802 19.5499 24.1532 20.1334 24.1333C20.5079 24.1442 20.8617 24.3072 21.1134 24.5848C21.365 24.8624 21.4926 25.2305 21.4667 25.6043C21.4667 26.6261 20.4987 27.4347 18.8944 28.7739C18.6934 28.9419 18.4838 29.1163 18.2667 29.2997C18.0496 29.1163 17.84 28.9419 17.639 28.7739C16.0347 27.4347 15.0667 26.6261 15.0667 25.6043C15.0409 25.2305 15.1685 24.8624 15.4201 24.5848C15.6717 24.3072 16.0256 24.1442 16.4 24.1333Z" fill="#FF57D2"/>
</g>
<defs>
<clipPath id="clip0_89_161">
<rect width="32" height="32" fill="white" transform="translate(6 6)"/>
</clipPath>
</defs>
</svg>
