<svg width="10" height="10" viewBox="0 0 10 10" fill="none" xmlns="http://www.w3.org/2000/svg">
<path d="M2.49981 10C2.17373 10 1.85545 9.9374 1.55337 9.81384C1.24446 9.68743 0.968231 9.50371 0.732272 9.26779C0.496257 9.03177 0.312535 8.75551 0.186184 8.44665C0.0598139 8.13775 -0.00278398 7.81194 9.49555e-05 7.47827C0.00299283 7.14456 0.0712728 6.81988 0.202965 6.51326C0.334051 6.20807 0.521447 5.93611 0.759944 5.70494L2.75702 3.70787C3.2292 3.2358 3.8569 2.97585 4.52455 2.97585C5.19218 2.97585 5.81988 3.2358 6.29204 3.70781C6.48736 3.90305 6.48739 4.21962 6.29218 4.41491C6.09694 4.61023 5.78037 4.61028 5.58504 4.41501C5.30175 4.13179 4.92512 3.97584 4.52455 3.97584C4.12398 3.97584 3.74737 4.13179 3.46408 4.41501L1.46417 6.41497C1.46212 6.41702 1.46006 6.41905 1.45797 6.42105C1.31393 6.56017 1.20082 6.72401 1.12182 6.90793C1.04278 7.09194 1.00183 7.28674 1.00009 7.48696C0.998347 7.68716 1.03592 7.88268 1.11174 8.06801C1.18756 8.25328 1.29779 8.41905 1.43939 8.56065C1.58095 8.70219 1.74674 8.81244 1.93209 8.8883C2.11732 8.96408 2.31303 9.00099 2.51308 8.99995C2.71321 8.99819 2.90805 8.95724 3.09211 8.87818C3.27598 8.79922 3.4398 8.68611 3.57897 8.54203C3.58103 8.53991 3.58312 8.53777 3.5852 8.53568L4.1362 7.9852C4.33153 7.79006 4.64813 7.79019 4.8433 7.98553C5.03846 8.18088 5.03832 8.49746 4.84297 8.69263L4.29497 9.24013C4.06377 9.47861 3.79186 9.66599 3.48675 9.79702C3.18001 9.92875 2.85535 9.99699 2.52176 9.99989C2.51445 9.99996 2.50712 10 2.49981 10ZM5.52458 6.97496C4.85691 6.97496 4.22921 6.71501 3.75707 6.243C3.56177 6.04776 3.56173 5.73117 3.75697 5.5359C3.95221 5.34062 4.2688 5.34055 4.46407 5.5358C4.74734 5.819 5.12395 5.97495 5.52456 5.97495C5.92517 5.97495 6.30178 5.819 6.58503 5.5358L8.58169 3.53915C8.85486 3.25489 9.00334 2.88137 8.99989 2.48696C8.99648 2.09124 8.84047 1.71919 8.56063 1.43933C8.28082 1.15951 7.90875 1.0035 7.513 1.00005C7.50856 1.00001 7.50404 0.999992 7.49961 0.999992C7.11 0.999992 6.74161 1.14831 6.46046 1.41861L5.91413 1.96498C5.71889 2.16024 5.4023 2.16026 5.20703 1.965C5.01177 1.76975 5.01177 1.45316 5.20703 1.25788L5.757 0.707895C5.75904 0.705849 5.76111 0.703804 5.76319 0.701796C6.23232 0.248705 6.84815 0 7.49949 0C7.50692 0 7.5143 3.78807e-05 7.52171 9.47016e-05C8.18131 0.00585256 8.80141 0.265865 9.26778 0.732271C9.73419 1.1987 9.99418 1.81878 9.9999 2.47832C10.0056 3.1379 9.75642 3.76242 9.29822 4.2368C9.29621 4.2389 9.29417 4.24095 9.29214 4.24299L7.29211 6.24296C6.81995 6.71501 6.19225 6.97496 5.52458 6.97496Z" fill="#272D34"/>
</svg>
