<svg width="104" height="104" viewBox="0 0 104 104" fill="none" xmlns="http://www.w3.org/2000/svg">
<rect width="104" height="104" rx="14" fill="#F1FDE0"/>
<g clip-path="url(#clip0_89_299)">
<path d="M67.6096 53.37C67.2239 53.37 66.9111 53.6827 66.9111 54.0685C66.9111 54.5576 66.5132 54.9555 66.0241 54.9555C65.5351 54.9555 65.1372 54.5576 65.1372 54.0685C65.1372 53.6826 64.8244 53.37 64.4386 53.37C64.0529 53.37 63.7401 53.6827 63.7401 54.0685C63.7401 55.3279 64.7648 56.3525 66.0241 56.3525C67.2835 56.3525 68.3082 55.3278 68.3082 54.0685C68.3082 53.6825 67.9954 53.37 67.6096 53.37Z" fill="#81C127"/>
<path d="M74.1666 53.4841L72.2005 52.8542C71.9487 52.7735 71.7502 52.5725 71.6697 52.3165C71.2553 50.999 70.63 49.7622 69.8111 48.6402C69.4379 48.1288 69.0228 47.6404 68.5695 47.1755C68.8595 45.9031 69.0172 44.463 68.9968 43.2188C68.9675 41.439 68.6118 40.3951 67.9095 40.0272C67.5312 39.8288 66.3799 39.2262 60.1487 42.0786C60.0011 42.1461 59.8633 42.2293 59.7357 42.3245C59.3156 42.2116 58.8862 42.1072 58.4542 42.0135C58.4022 42.0021 58.3486 41.9921 58.2962 41.981C58.8011 40.878 59.0959 39.6799 59.1513 38.4432C59.1686 38.0577 58.8702 37.7312 58.4847 37.7141C58.1002 37.695 57.7728 37.9951 57.7556 38.3806C57.6646 40.4142 56.821 42.3275 55.3804 43.7682C54.5197 44.6289 53.5119 45.2541 52.4378 45.6479C50.5751 45.3865 48.6778 45.3865 46.8151 45.6479C45.7409 45.2541 44.7332 44.6289 43.8724 43.7682C42.3355 42.2312 41.489 40.1878 41.489 38.0142C41.489 35.8405 42.3355 33.7971 43.8724 32.2602C45.4094 30.7231 47.4529 29.8767 49.6264 29.8767C51.7999 29.8767 53.8435 30.7231 55.3804 32.2602C55.9981 32.8778 56.5084 33.5826 56.8974 34.3548C57.0709 34.6995 57.491 34.8382 57.8356 34.6646C58.1802 34.4911 58.3188 34.0711 58.1453 33.7265C57.6894 32.821 57.0916 31.9953 56.3685 31.2721C54.5676 29.4713 52.1733 28.4795 49.6265 28.4795C47.0798 28.4795 44.6854 29.4713 42.8846 31.2721C41.0837 33.0731 40.092 35.4674 40.092 38.0141C40.092 40.5608 41.0837 42.9552 42.8846 44.756C43.4041 45.2755 43.9692 45.7222 44.5669 46.0965C44.1326 46.2093 43.7021 46.336 43.2758 46.4785C42.9099 46.6008 42.7125 46.9966 42.8348 47.3626C42.9571 47.7285 43.353 47.9259 43.7188 47.8036C47.5284 46.5301 51.7247 46.5301 55.5343 47.8036C55.6078 47.8282 55.6824 47.8398 55.7558 47.8398C56.048 47.8398 56.3205 47.655 56.4182 47.3626C56.5406 46.9966 56.3432 46.6008 55.9773 46.4785C55.551 46.336 55.1199 46.2091 54.6856 46.0964C55.2834 45.7221 55.849 45.2755 56.3685 44.756C56.828 44.2965 57.2337 43.7946 57.5859 43.2613C57.7785 43.2987 57.9696 43.3379 58.158 43.3787C58.4088 43.4332 58.6586 43.4917 58.9061 43.5531C58.8983 43.5835 58.8903 43.6138 58.8839 43.6446C58.5432 45.2613 58.5653 46.6912 58.9496 47.8943C59.295 48.9757 59.9183 49.8518 60.8021 50.4984C61.8438 51.2604 63.1013 51.5896 64.2405 51.5896C65.0978 51.5896 65.8882 51.403 66.4687 51.0742C67.1253 50.7023 67.6755 49.9186 68.1109 48.7421C68.3122 48.977 68.503 49.2177 68.6828 49.4641C69.4119 50.4629 69.9685 51.5637 70.3371 52.7357C70.5536 53.4241 71.091 53.9658 71.7745 54.1849L73.7406 54.8147C74.2565 54.98 74.6031 55.4549 74.6031 55.9966V59.2567C74.6031 59.7984 74.2565 60.2732 73.7406 60.4385L70.5729 61.4532C70.0661 61.6157 69.6372 61.9639 69.3652 62.434C68.1207 64.5848 66.164 66.3646 63.5492 67.7241C63.2472 67.8813 63.0379 68.1625 62.9749 68.4957L61.9604 73.8678C61.9323 74.0159 61.8027 74.1232 61.652 74.1232H58.3533C58.2026 74.1232 58.0729 74.0158 58.0449 73.8678L57.483 70.8989C57.3723 70.3147 56.8245 69.9267 56.2348 70.016C54.8138 70.2309 53.3496 70.3397 51.8831 70.3397C50.792 70.3397 49.7149 70.2789 48.6815 70.1588C48.1101 70.0931 47.5778 70.4826 47.471 71.0468L46.937 73.8678C46.909 74.0159 46.7793 74.1232 46.6287 74.1232H43.3299C43.1792 74.1232 43.0496 74.0158 43.0212 73.8656L42.0443 68.7916C41.9814 68.4647 41.7761 68.1868 41.4807 68.029C37.0234 65.6495 34.6675 61.6741 34.6675 56.5329C34.6675 53.9353 35.2358 51.6383 36.3566 49.7056C37.4025 47.9019 40.3949 45.6084 42.3616 44.4707C42.6956 44.2775 42.8097 43.8502 42.6166 43.5162C42.4234 43.1822 41.9961 43.0683 41.6621 43.2613C37.8484 45.4674 34.0834 49.6731 33.4502 53.9959C33.3829 53.9898 33.3156 53.9839 33.2486 53.977C33.2608 53.5106 33.1764 53.04 32.9927 52.5832C32.5874 51.5758 31.7549 50.8486 30.8717 50.7308C30.1757 50.6376 29.5133 50.9331 29.0537 51.5404C28.3872 52.4211 28.4958 53.1181 28.7042 53.5476C29.0561 54.2726 29.9605 54.7854 31.4613 55.1078C31.4201 55.1696 31.3747 55.2316 31.325 55.294C30.4383 56.4061 29.3935 56.6521 28.7151 56.6752C28.318 56.6886 28 57.0075 28 57.4049V57.4082C28 57.8002 28.3093 58.1199 28.7009 58.1378C28.751 58.1402 28.8034 58.1414 28.858 58.1414C29.7164 58.1414 31.094 57.8248 32.4176 56.1651C32.6266 55.9032 32.7968 55.6268 32.9277 55.3412C33.0595 55.3561 33.1862 55.3689 33.3075 55.3801C33.2837 55.7587 33.2705 56.1421 33.2705 56.5329C33.2705 59.4418 33.964 62.0354 35.3315 64.242C36.5925 66.2763 38.3978 67.9421 40.6992 69.1948L41.6489 74.1275C41.8016 74.9345 42.5086 75.5203 43.3299 75.5203H46.6287C47.45 75.5203 48.157 74.9345 48.3097 74.1275L48.7925 71.5768C49.7953 71.683 50.8335 71.7368 51.883 71.7368C53.323 71.7368 54.7613 71.6365 56.1631 71.4385L56.672 74.1277C56.8248 74.9347 57.5318 75.5204 58.3531 75.5204H61.6518C62.4732 75.5204 63.1802 74.9346 63.333 74.1273L64.3208 68.8969C67.1116 67.4212 69.2151 65.4826 70.5743 63.1336C70.6723 62.9643 70.8231 62.8401 70.999 62.7838L74.1666 61.7691C75.2632 61.4177 76 60.4081 76 59.2565V55.9964C76 54.8449 75.2632 53.8353 74.1666 53.4841ZM67.4948 45.1818C67.2259 47.4811 66.5047 49.448 65.78 49.8585C64.9563 50.3251 63.0546 50.4151 61.6268 49.3707C60.1973 48.325 59.7215 46.4446 60.2507 43.9326C60.3039 43.6803 60.4832 43.462 60.7302 43.3489C64.2274 41.7481 66.2437 41.2245 66.9928 41.2245C67.1058 41.2245 67.19 41.2364 67.2461 41.2583C67.4711 41.4981 67.7662 42.8613 67.4948 45.1818ZM29.9613 52.9376C29.8891 52.7885 30.0597 52.5265 30.1679 52.3834C30.3393 52.1569 30.4973 52.1106 30.6167 52.1106C30.6419 52.1106 30.6654 52.1127 30.687 52.1156C31.0082 52.1584 31.4582 52.5119 31.6966 53.1045C31.7527 53.244 31.8257 53.4751 31.8427 53.7632C30.8757 53.5629 30.1244 53.2741 29.9613 52.9376Z" fill="#81C127"/>
<path d="M50.147 38.784H48.215V39.756H51.191V40.572H48.215V42H47.111V40.572H46.091V39.756H47.111V38.784H46.091V37.776H47.111V33.6H50.147C50.875 33.6 51.495 33.856 52.007 34.368C52.519 34.872 52.775 35.484 52.775 36.204C52.775 36.924 52.519 37.536 52.007 38.04C51.495 38.536 50.875 38.784 50.147 38.784ZM50.147 34.644H48.215V37.776H50.147C50.555 37.776 50.911 37.624 51.215 37.32C51.519 37 51.671 36.628 51.671 36.204C51.671 35.764 51.523 35.396 51.227 35.1C50.923 34.796 50.563 34.644 50.147 34.644Z" fill="#81C127"/>
</g>
<defs>
<clipPath id="clip0_89_299">
<rect width="48" height="48" fill="white" transform="translate(28 28)"/>
</clipPath>
</defs>
</svg>
