<svg width="104" height="104" viewBox="0 0 104 104" fill="none" xmlns="http://www.w3.org/2000/svg">
<rect width="104" height="104" rx="14" fill="#272D34" fill-opacity="0.07"/>
<g opacity="0.2">
<mask id="mask0_89_436" style="mask-type:luminance" maskUnits="userSpaceOnUse" x="32" y="32" width="40" height="40">
<path d="M32 32H72V72H32V32Z" fill="white"/>
</mask>
<g mask="url(#mask0_89_436)">
<path d="M69.4121 59.4818V69.0703C69.4121 70.3647 68.3628 71.4141 67.0684 71.4141H36.9318C35.6374 71.4141 34.5881 70.3647 34.5881 69.0703V65.8099" stroke="#272D34" stroke-width="1.17187" stroke-miterlimit="10" stroke-linecap="round" stroke-linejoin="round"/>
<path d="M60.6923 69.0703H36.9357C35.6392 69.0703 34.5881 68.0192 34.5881 66.7227V37.6113C34.5881 36.3147 35.6392 35.2636 36.9357 35.2636H67.0644C68.361 35.2636 69.4121 36.3147 69.4121 37.6113V60.3505C69.4121 60.9731 69.1648 61.5703 68.7245 62.0105L62.3524 68.3827C61.9121 68.823 61.3149 69.0703 60.6923 69.0703Z" stroke="#272D34" stroke-width="1.17187" stroke-miterlimit="10" stroke-linecap="round" stroke-linejoin="round"/>
<path d="M59.7302 69.0703C60.7926 69.0703 61.6538 68.2091 61.6538 67.1467V63.2355C61.6538 62.1732 62.515 61.312 63.5773 61.312H67.4886C68.5509 61.312 69.4121 60.4508 69.4121 59.3884" stroke="#272D34" stroke-width="1.17187" stroke-miterlimit="10" stroke-linecap="round" stroke-linejoin="round"/>
<path d="M41.5157 43.637H34.5881" stroke="#272D34" stroke-width="1.17187" stroke-miterlimit="10" stroke-linecap="round" stroke-linejoin="round"/>
<path d="M69.4121 43.637H39.8594" stroke="#272D34" stroke-width="1.17187" stroke-miterlimit="10" stroke-linecap="round" stroke-linejoin="round"/>
<path d="M41.2228 38.7681C40.5623 38.7681 40.0269 38.2327 40.0269 37.5722V33.7817C40.0269 33.1212 40.5623 32.5858 41.2228 32.5858H41.4918C42.1522 32.5858 42.6876 33.1212 42.6876 33.7817V35.2635" stroke="#272D34" stroke-width="1.17187" stroke-miterlimit="10" stroke-linecap="round" stroke-linejoin="round"/>
<path d="M62.5085 38.7681C61.848 38.7681 61.3126 38.2327 61.3126 37.5722V33.7817C61.3126 33.1212 61.848 32.5858 62.5085 32.5858H62.7775C63.4379 32.5858 63.9733 33.1212 63.9733 33.7817V35.2635" stroke="#272D34" stroke-width="1.17187" stroke-miterlimit="10" stroke-linecap="round" stroke-linejoin="round"/>
<path d="M41.4519 51.0588H38.6617C38.3535 51.0588 38.1037 50.809 38.1037 50.5008V47.7106C38.1037 47.4024 38.3535 47.1526 38.6617 47.1526H41.4519C41.7601 47.1526 42.0099 47.4024 42.0099 47.7106V50.5008C42.0099 50.809 41.7601 51.0588 41.4519 51.0588Z" stroke="#272D34" stroke-width="1.17187" stroke-miterlimit="10" stroke-linecap="round" stroke-linejoin="round"/>
<path d="M49.4141 51.0588H46.6239C46.3157 51.0588 46.0659 50.809 46.0659 50.5008V47.7106C46.0659 47.4024 46.3157 47.1526 46.6239 47.1526H49.4141C49.7223 47.1526 49.9721 47.4024 49.9721 47.7106V50.5008C49.9721 50.809 49.7223 51.0588 49.4141 51.0588Z" stroke="#272D34" stroke-width="1.17187" stroke-miterlimit="10" stroke-linecap="round" stroke-linejoin="round"/>
<path d="M57.3763 51.0588H54.5861C54.2779 51.0588 54.0281 50.809 54.0281 50.5008V47.7106C54.0281 47.4024 54.2779 47.1526 54.5861 47.1526H57.3763C57.6845 47.1526 57.9343 47.4024 57.9343 47.7106V50.5008C57.9343 50.809 57.6845 51.0588 57.3763 51.0588Z" stroke="#272D34" stroke-width="1.17187" stroke-miterlimit="10" stroke-linecap="round" stroke-linejoin="round"/>
<path d="M65.3384 51.0588H62.5483C62.2401 51.0588 61.9902 50.809 61.9902 50.5008V47.7106C61.9902 47.4024 62.2401 47.1526 62.5483 47.1526H65.3384C65.6466 47.1526 65.8965 47.4024 65.8965 47.7106V50.5008C65.8965 50.809 65.6466 51.0588 65.3384 51.0588Z" stroke="#272D34" stroke-width="1.17187" stroke-miterlimit="10" stroke-linecap="round" stroke-linejoin="round"/>
<path d="M41.4519 58.3068H38.6617C38.3535 58.3068 38.1037 58.0569 38.1037 57.7487V54.9586C38.1037 54.6504 38.3535 54.4005 38.6617 54.4005H41.4519C41.7601 54.4005 42.0099 54.6504 42.0099 54.9586V57.7487C42.0099 58.0569 41.7601 58.3068 41.4519 58.3068Z" stroke="#272D34" stroke-width="1.17187" stroke-miterlimit="10" stroke-linecap="round" stroke-linejoin="round"/>
<path d="M49.4141 58.3068H46.6239C46.3157 58.3068 46.0659 58.0569 46.0659 57.7487V54.9586C46.0659 54.6504 46.3157 54.4005 46.6239 54.4005H49.4141C49.7223 54.4005 49.9721 54.6504 49.9721 54.9586V57.7487C49.9721 58.0569 49.7223 58.3068 49.4141 58.3068Z" stroke="#272D34" stroke-width="1.17187" stroke-miterlimit="10" stroke-linecap="round" stroke-linejoin="round"/>
<path d="M57.3763 58.3068H54.5861C54.2779 58.3068 54.0281 58.0569 54.0281 57.7487V54.9586C54.0281 54.6504 54.2779 54.4005 54.5861 54.4005H57.3763C57.6845 54.4005 57.9343 54.6504 57.9343 54.9586V57.7487C57.9343 58.0569 57.6845 58.3068 57.3763 58.3068Z" stroke="#272D34" stroke-width="1.17187" stroke-miterlimit="10" stroke-linecap="round" stroke-linejoin="round"/>
<path d="M65.3384 58.4807H62.5483C62.2401 58.4807 61.9902 58.2309 61.9902 57.9227V55.1325C61.9902 54.8243 62.2401 54.5745 62.5483 54.5745H65.3384C65.6466 54.5745 65.8965 54.8243 65.8965 55.1325V57.9227C65.8965 58.2309 65.6466 58.4807 65.3384 58.4807Z" stroke="#272D34" stroke-width="1.17187" stroke-miterlimit="10" stroke-linecap="round" stroke-linejoin="round"/>
<path d="M41.4519 65.5547H38.6617C38.3535 65.5547 38.1037 65.3048 38.1037 64.9966V62.2065C38.1037 61.8983 38.3535 61.6484 38.6617 61.6484H41.4519C41.7601 61.6484 42.0099 61.8983 42.0099 62.2065V64.9966C42.0099 65.3048 41.7601 65.5547 41.4519 65.5547Z" stroke="#272D34" stroke-width="1.17187" stroke-miterlimit="10" stroke-linecap="round" stroke-linejoin="round"/>
<path d="M49.4141 65.5547H46.6239C46.3157 65.5547 46.0659 65.3048 46.0659 64.9966V62.2065C46.0659 61.8983 46.3157 61.6484 46.6239 61.6484H49.4141C49.7223 61.6484 49.9721 61.8983 49.9721 62.2065V64.9966C49.9721 65.3048 49.7223 65.5547 49.4141 65.5547Z" stroke="#272D34" stroke-width="1.17187" stroke-miterlimit="10" stroke-linecap="round" stroke-linejoin="round"/>
<path d="M54.0281 65.0111V62.2065C54.0281 61.8982 54.2779 61.6484 54.5861 61.6484H57.3763C57.6845 61.6484 57.9343 61.8982 57.9343 62.2065V64.9966C57.9343 65.3048 57.6845 65.5547 57.3763 65.5547H54.5861C54.2779 65.5547 54.0281 65.3048 54.0281 64.9966" stroke="#272D34" stroke-width="1.17187" stroke-miterlimit="10" stroke-linecap="round" stroke-linejoin="round"/>
</g>
</g>
</svg>
