<svg width="264" height="21" viewBox="0 0 264 21" fill="none" xmlns="http://www.w3.org/2000/svg">
<path d="M3.766 8.588C4.746 8.588 5.55333 8.896 6.188 9.512C6.82267 10.1187 7.14 10.9073 7.14 11.878C7.14 12.8487 6.82267 13.642 6.188 14.258C5.55333 14.874 4.746 15.182 3.766 15.182C2.76733 15.182 1.95533 14.874 1.33 14.258C0.704667 13.642 0.392 12.8487 0.392 11.878C0.392 11.1127 0.588 10.4593 0.98 9.918L4.13 5.2H5.614L3.304 8.616C3.584 8.59733 3.738 8.588 3.766 8.588ZM3.766 9.834C3.14067 9.834 2.63667 10.0207 2.254 10.394C1.87133 10.7673 1.68 11.262 1.68 11.878C1.68 12.494 1.87133 12.9933 2.254 13.376C2.646 13.7493 3.15 13.936 3.766 13.936C4.382 13.936 4.88133 13.7493 5.264 13.376C5.656 12.9933 5.852 12.494 5.852 11.878C5.852 11.262 5.656 10.7673 5.264 10.394C4.88133 10.0207 4.382 9.834 3.766 9.834ZM6.93755 6.432V5.2H13.0555V6.362L9.48555 15H8.12755L11.6695 6.432H6.93755Z" fill="#81C127"/>
<path d="M171.569 6.096L174.145 5.2H175.265V15H173.977V6.6L171.891 7.216L171.569 6.096ZM183.559 13.796C182.906 14.72 181.977 15.182 180.773 15.182C179.569 15.182 178.641 14.72 177.987 13.796C177.325 12.8627 176.993 11.6307 176.993 10.1C176.993 8.56933 177.325 7.33733 177.987 6.404C178.641 5.48 179.569 5.018 180.773 5.018C181.977 5.018 182.906 5.48 183.559 6.404C184.222 7.33733 184.553 8.56933 184.553 10.1C184.553 11.6307 184.222 12.8627 183.559 13.796ZM178.295 10.1C178.295 11.3133 178.51 12.2513 178.939 12.914C179.369 13.5767 179.98 13.908 180.773 13.908C181.567 13.908 182.178 13.5767 182.607 12.914C183.046 12.2513 183.265 11.3133 183.265 10.1C183.265 8.88667 183.046 7.94867 182.607 7.286C182.178 6.614 181.567 6.278 180.773 6.278C179.98 6.278 179.369 6.60933 178.939 7.272C178.51 7.93467 178.295 8.87733 178.295 10.1ZM192.378 13.796C191.724 14.72 190.796 15.182 189.592 15.182C188.388 15.182 187.459 14.72 186.806 13.796C186.143 12.8627 185.812 11.6307 185.812 10.1C185.812 8.56933 186.143 7.33733 186.806 6.404C187.459 5.48 188.388 5.018 189.592 5.018C190.796 5.018 191.724 5.48 192.378 6.404C193.04 7.33733 193.372 8.56933 193.372 10.1C193.372 11.6307 193.04 12.8627 192.378 13.796ZM187.114 10.1C187.114 11.3133 187.328 12.2513 187.758 12.914C188.187 13.5767 188.798 13.908 189.592 13.908C190.385 13.908 190.996 13.5767 191.426 12.914C191.864 12.2513 192.084 11.3133 192.084 10.1C192.084 8.88667 191.864 7.94867 191.426 7.286C190.996 6.614 190.385 6.278 189.592 6.278C188.798 6.278 188.187 6.60933 187.758 7.272C187.328 7.93467 187.114 8.87733 187.114 10.1Z" fill="#81C127"/>
<path d="M22 11H163" stroke="#272D34" stroke-opacity="0.1" stroke-width="2" stroke-linecap="round"/>
<path d="M22 11H109" stroke="#81C127" stroke-width="2" stroke-linecap="round"/>
<rect x="202" width="62" height="21" rx="10.5" fill="#272D34" fill-opacity="0.07"/>
<path d="M216.88 14H212.36V13.24L214.83 10.72C215.49 10.06 215.82 9.49333 215.82 9.02C215.82 8.63333 215.7 8.33 215.46 8.11C215.227 7.88333 214.933 7.77 214.58 7.77C213.92 7.77 213.44 8.08333 213.14 8.71L212.36 8.25C212.573 7.80333 212.873 7.46333 213.26 7.23C213.647 6.99 214.083 6.87 214.57 6.87C215.163 6.87 215.673 7.06333 216.1 7.45C216.533 7.84333 216.75 8.36333 216.75 9.01C216.75 9.71667 216.333 10.4867 215.5 11.32L213.71 13.1H216.88V14ZM223.893 11.08V9H224.763V14H223.893V11.91H221.303V14H220.433V9H221.303V11.08H223.893ZM230.888 11.9H226.698C226.784 12.34 226.988 12.6867 227.308 12.94C227.628 13.1867 228.028 13.31 228.508 13.31C229.168 13.31 229.648 13.0667 229.948 12.58L230.688 13C230.194 13.7533 229.461 14.13 228.488 14.13C227.701 14.13 227.054 13.8833 226.548 13.39C226.054 12.8833 225.808 12.2533 225.808 11.5C225.808 10.74 226.051 10.1133 226.538 9.62C227.024 9.12 227.654 8.87 228.428 8.87C229.161 8.87 229.758 9.13 230.218 9.65C230.684 10.1567 230.918 10.7767 230.918 11.51C230.918 11.6367 230.908 11.7667 230.888 11.9ZM228.428 9.69C227.968 9.69 227.581 9.82 227.268 10.08C226.961 10.34 226.771 10.6933 226.698 11.14H230.038C229.964 10.68 229.781 10.3233 229.488 10.07C229.194 9.81667 228.841 9.69 228.428 9.69ZM236.023 9V13.17H236.712V15.34H235.853V14H232.103V15.34H231.243V13.17H231.853C232.173 12.73 232.333 12.1133 232.333 11.32V9H236.023ZM232.843 13.17H235.163V9.81H233.193V11.32C233.193 12.0533 233.076 12.67 232.843 13.17ZM242.255 11.9H238.065C238.152 12.34 238.355 12.6867 238.675 12.94C238.995 13.1867 239.395 13.31 239.875 13.31C240.535 13.31 241.015 13.0667 241.315 12.58L242.055 13C241.562 13.7533 240.828 14.13 239.855 14.13C239.068 14.13 238.422 13.8833 237.915 13.39C237.422 12.8833 237.175 12.2533 237.175 11.5C237.175 10.74 237.418 10.1133 237.905 9.62C238.392 9.12 239.022 8.87 239.795 8.87C240.528 8.87 241.125 9.13 241.585 9.65C242.052 10.1567 242.285 10.7767 242.285 11.51C242.285 11.6367 242.275 11.7667 242.255 11.9ZM239.795 9.69C239.335 9.69 238.948 9.82 238.635 10.08C238.328 10.34 238.138 10.6933 238.065 11.14H241.405C241.332 10.68 241.148 10.3233 240.855 10.07C240.562 9.81667 240.208 9.69 239.795 9.69ZM243.55 9H247.26V14H246.39V9.84H244.42V11.88C244.42 12.68 244.26 13.25 243.94 13.59C243.62 13.9233 243.15 14.06 242.53 14V13.18C242.876 13.2267 243.133 13.15 243.3 12.95C243.466 12.7433 243.55 12.38 243.55 11.86V9ZM249.438 12.51L252.208 9H252.908V14H252.048V10.49L249.278 14H248.578V9H249.438V12.51Z" fill="#272D34"/>
</svg>
