<svg width="32" height="32" viewBox="0 0 32 32" fill="none" xmlns="http://www.w3.org/2000/svg">
<circle cx="16" cy="16" r="16" fill="#44B1FF"/>
<path d="M20.4448 12.2757C20.3418 12.382 20.2069 12.4421 20.0664 12.4443C19.9258 12.4466 19.7895 12.3908 19.6838 12.2879C18.6602 11.3279 17.3642 10.8006 16.0248 10.799C14.9228 10.799 13.8198 11.2023 13.8198 12.3257C13.8198 13.4623 15.0018 13.8412 16.3658 14.409C18.7518 15.2934 20.7288 16.4045 20.7288 19.0056C20.7288 21.8334 18.7518 23.7778 15.5248 23.9922L15.2298 25.5078C15.2035 25.6471 15.1349 25.7721 15.0355 25.8617C14.936 25.9514 14.8118 26.0002 14.6838 26H12.6498L12.5478 25.9878C12.4022 25.9516 12.2753 25.8532 12.1945 25.7139C12.1136 25.5746 12.0854 25.4056 12.1158 25.2433L12.4338 23.6389C11.2089 23.2978 10.0825 22.6156 9.16076 21.6567V21.6445C9.10981 21.5882 9.06938 21.5213 9.04179 21.4476C9.0142 21.3739 9 21.2949 9 21.215C9 21.1352 9.0142 21.0562 9.04179 20.9825C9.06938 20.9088 9.10981 20.8419 9.16076 20.7856L10.2978 19.5612C10.5118 19.3389 10.8448 19.3389 11.0588 19.5612C12.0986 20.6526 13.4805 21.2505 14.9108 21.2278C16.3888 21.2278 17.3768 20.5334 17.3768 19.4345C17.3768 18.3356 16.3768 18.0456 14.4908 17.2634C12.4908 16.4678 10.5928 15.3434 10.5928 12.7179C10.5928 9.66234 12.8768 8.17235 15.5818 8.03346L15.8658 6.48014C15.8921 6.34212 15.9609 6.21864 16.0604 6.131C16.1599 6.04337 16.2838 5.99708 16.4108 6.00014H18.4338L18.5478 6.01348C18.6179 6.02984 18.6845 6.06145 18.7436 6.10649C18.8027 6.15153 18.8532 6.2091 18.8923 6.27591C18.9313 6.34271 18.958 6.41743 18.971 6.49576C18.984 6.57409 18.9829 6.6545 18.9678 6.73236L18.6608 8.46235C19.6922 8.84268 20.6487 9.43855 21.4788 10.2179L21.5018 10.2423C21.7178 10.4957 21.7178 10.8746 21.5018 11.1012L20.4448 12.2757Z" stroke="white" stroke-linecap="round" stroke-linejoin="round"/>
</svg>
