<svg width="58" height="58" viewBox="0 0 58 58" fill="none" xmlns="http://www.w3.org/2000/svg">
<circle cx="29" cy="29" r="29" fill="#629EDD"/>
<path d="M10 19.6667C10 18.429 10.5004 17.242 11.3912 16.3668C12.282 15.4917 13.4902 15 14.75 15H43.25C44.5098 15 45.718 15.4917 46.6088 16.3668C47.4996 17.242 48 18.429 48 19.6667V22H10V19.6667ZM10 26.6667V38.3333C10 39.571 10.5004 40.758 11.3912 41.6332C12.282 42.5083 13.4902 43 14.75 43H43.25C44.5098 43 45.718 42.5083 46.6088 41.6332C47.4996 40.758 48 39.571 48 38.3333V26.6667H10ZM17.125 31.3333H19.5C20.1299 31.3333 20.734 31.5792 21.1794 32.0168C21.6248 32.4543 21.875 33.0478 21.875 33.6667V36C21.875 36.6188 21.6248 37.2123 21.1794 37.6499C20.734 38.0875 20.1299 38.3333 19.5 38.3333H17.125C16.4951 38.3333 15.891 38.0875 15.4456 37.6499C15.0002 37.2123 14.75 36.6188 14.75 36V33.6667C14.75 33.0478 15.0002 32.4543 15.4456 32.0168C15.891 31.5792 16.4951 31.3333 17.125 31.3333Z" fill="white"/>
</svg>
