<svg width="58" height="58" viewBox="0 0 58 58" fill="none" xmlns="http://www.w3.org/2000/svg">
<circle cx="29" cy="29" r="29" fill="#629EDD"/>
<path fill-rule="evenodd" clip-rule="evenodd" d="M34.2651 11.3735C34.2651 11.0092 34.4098 10.6599 34.6673 10.4023C34.9249 10.1447 35.2743 10 35.6386 10H46.6265C46.9908 10 47.3401 10.1447 47.5977 10.4023C47.8553 10.6599 48 11.0092 48 11.3735V22.3614C48 22.7257 47.8553 23.0751 47.5977 23.3327C47.3401 23.5902 46.9908 23.7349 46.6265 23.7349C46.2622 23.7349 45.9129 23.5902 45.6553 23.3327C45.3977 23.0751 45.253 22.7257 45.253 22.3614V14.6882L32.9465 26.9947C32.8208 27.1296 32.6691 27.2379 32.5006 27.3129C32.3322 27.388 32.1503 27.4284 31.9659 27.4316C31.7814 27.4349 31.5983 27.401 31.4272 27.3319C31.2562 27.2628 31.1009 27.16 30.9704 27.0296C30.84 26.8991 30.7372 26.7438 30.6681 26.5728C30.599 26.4017 30.5651 26.2185 30.5684 26.0341C30.5716 25.8497 30.612 25.6678 30.687 25.4994C30.7621 25.3309 30.8704 25.1792 31.0053 25.0535L43.3118 12.747H35.6386C35.2743 12.747 34.9249 12.6023 34.6673 12.3447C34.4098 12.0871 34.2651 11.7378 34.2651 11.3735Z" fill="white"/>
<path d="M28.3133 11.3735C18.1988 11.3735 10 19.5723 10 29.6867C10 39.8012 18.1988 48 28.3133 48C38.4277 48 46.6265 39.8012 46.6265 29.6867C46.6265 28.5898 46.5294 27.5166 46.3445 26.4728C45.3028 26.4013 44.3272 25.9371 43.6147 25.1739C42.9021 24.4107 42.5059 23.4055 42.506 22.3614V21.3212L34.8895 28.9377C34.1168 29.7105 33.0687 30.1446 31.9759 30.1446C30.8831 30.1446 29.835 29.7105 29.0623 28.9377C28.2895 28.165 27.8554 27.1169 27.8554 26.0241C27.8554 24.9313 28.2895 23.8832 29.0623 23.1105L36.6787 15.494H35.6386C34.5945 15.4941 33.5893 15.0979 32.8261 14.3853C32.0629 13.6728 31.5987 12.6972 31.5272 11.6555C30.4662 11.4676 29.3908 11.3732 28.3133 11.3735Z" fill="white"/>
</svg>
