<svg width="35" height="35" viewBox="0 0 35 35" fill="none" xmlns="http://www.w3.org/2000/svg">
<rect width="35" height="35" rx="10" fill="#619EDD"/>
<path d="M17 28C15.6333 28 14.3417 27.7373 13.125 27.212C11.9083 26.6867 10.8457 25.97 9.937 25.062C9.029 24.154 8.31233 23.0917 7.787 21.875C7.26167 20.6583 6.99933 19.3667 7 18C7 16.6167 7.26267 15.3207 7.788 14.112C8.31333 12.9033 9.03 11.8453 9.938 10.938C10.846 10.0293 11.908 9.31267 13.124 8.788C14.34 8.26333 15.632 8.00067 17 8C18.3833 8 19.6793 8.26267 20.888 8.788C22.0967 9.31333 23.1547 10.03 24.062 10.938C24.9707 11.846 25.6873 12.9043 26.212 14.113C26.7367 15.3217 26.9993 16.6173 27 18C27 19.3667 26.7373 20.6583 26.212 21.875C25.6867 23.0917 24.97 24.1543 24.062 25.063C23.154 25.971 22.0957 26.6877 20.887 27.213C19.6783 27.7383 18.3827 28.0007 17 28ZM17 25.95C17.4333 25.35 17.8083 24.725 18.125 24.075C18.4417 23.425 18.7 22.7333 18.9 22H15.1C15.3 22.7333 15.5583 23.425 15.875 24.075C16.1917 24.725 16.5667 25.35 17 25.95ZM14.4 25.55C14.1 25 13.8373 24.429 13.612 23.837C13.3867 23.245 13.1993 22.6327 13.05 22H10.1C10.5833 22.8333 11.1877 23.5583 11.913 24.175C12.6383 24.7917 13.4673 25.25 14.4 25.55ZM19.6 25.55C20.5333 25.25 21.3627 24.7917 22.088 24.175C22.8133 23.5583 23.4173 22.8333 23.9 22H20.95C20.8 22.6333 20.6127 23.246 20.388 23.838C20.1633 24.43 19.9007 25.0007 19.6 25.55ZM9.25 20H12.65C12.6 19.6667 12.5623 19.3373 12.537 19.012C12.5117 18.6867 12.4993 18.3493 12.5 18C12.5 17.65 12.5127 17.3127 12.538 16.988C12.5633 16.6633 12.6007 16.334 12.65 16H9.25C9.16667 16.3333 9.104 16.6627 9.062 16.988C9.02 17.3133 8.99933 17.6507 9 18C9 18.35 9.021 18.6873 9.063 19.012C9.105 19.3367 9.16733 19.666 9.25 20ZM14.65 20H19.35C19.4 19.6667 19.4377 19.3373 19.463 19.012C19.4883 18.6867 19.5007 18.3493 19.5 18C19.5 17.65 19.4873 17.3127 19.462 16.988C19.4367 16.6633 19.3993 16.334 19.35 16H14.65C14.6 16.3333 14.5623 16.6627 14.537 16.988C14.5117 17.3133 14.4993 17.6507 14.5 18C14.5 18.35 14.5127 18.6873 14.538 19.012C14.5633 19.3367 14.6007 19.666 14.65 20ZM21.35 20H24.75C24.8333 19.6667 24.896 19.3373 24.938 19.012C24.98 18.6867 25.0007 18.3493 25 18C25 17.65 24.979 17.3127 24.937 16.988C24.895 16.6633 24.8327 16.334 24.75 16H21.35C21.4 16.3333 21.4377 16.6627 21.463 16.988C21.4883 17.3133 21.5007 17.6507 21.5 18C21.5 18.35 21.4873 18.6873 21.462 19.012C21.4367 19.3367 21.3993 19.666 21.35 20ZM20.95 14H23.9C23.4167 13.1667 22.8127 12.4417 22.088 11.825C21.3633 11.2083 20.534 10.75 19.6 10.45C19.9 11 20.1627 11.571 20.388 12.163C20.6133 12.755 20.8007 13.3673 20.95 14ZM15.1 14H18.9C18.7 13.2667 18.4417 12.575 18.125 11.925C17.8083 11.275 17.4333 10.65 17 10.05C16.5667 10.65 16.1917 11.275 15.875 11.925C15.5583 12.575 15.3 13.2667 15.1 14ZM10.1 14H13.05C13.2 13.3667 13.3877 12.754 13.613 12.162C13.8383 11.57 14.1007 10.9993 14.4 10.45C13.4667 10.75 12.6373 11.2083 11.912 11.825C11.1867 12.4417 10.5827 13.1667 10.1 14Z" fill="white"/>
</svg>
