<svg width="32" height="32" viewBox="0 0 32 32" fill="none" xmlns="http://www.w3.org/2000/svg">
<circle cx="16" cy="16" r="16" fill="#44B1FF"/>
<path d="M10.8 12H14.6" stroke="white" stroke-width="1.5" stroke-linecap="round" stroke-linejoin="round"/>
<path d="M24.8913 13H22.4194C20.7237 13 19.35 14.343 19.35 16C19.35 17.657 20.7246 19 22.4185 19H24.8913C24.9711 19 25.0101 19 25.0433 18.998C25.5563 18.965 25.9648 18.566 25.9981 18.065C26 18.033 26 17.994 26 17.917V14.083C26 14.006 26 13.967 25.9981 13.935C25.9639 13.434 25.5563 13.035 25.0433 13.002C25.011 13 24.9711 13 24.8913 13Z" stroke="white" stroke-width="1.5"/>
<path d="M25.0167 13C24.9426 11.128 24.7051 9.98 23.9366 9.172C22.8241 8 21.0324 8 17.45 8H14.6C11.0176 8 9.22585 8 8.1134 9.172C7 10.343 7 12.229 7 16C7 19.771 7 21.657 8.1134 22.828C9.22585 24 11.0176 24 14.6 24H17.45C21.0324 24 22.8241 24 23.9366 22.828C24.7051 22.02 24.9436 20.872 25.0167 19" stroke="white" stroke-width="1.5"/>
<path d="M22.1915 16H22.2015" stroke="white" stroke-width="2" stroke-linecap="round" stroke-linejoin="round"/>
</svg>
