<svg width="58" height="58" viewBox="0 0 58 58" fill="none" xmlns="http://www.w3.org/2000/svg">
<circle cx="29" cy="29" r="29" fill="#629EDD"/>
<path fill-rule="evenodd" clip-rule="evenodd" d="M16.7192 14C16.4042 14 16.1233 14.2183 16.015 14.5467L14.0917 20.3892C14.0309 20.5739 14 20.7672 14 20.9617V23.2858C14 24.6 14.9592 25.6667 16.1425 25.6667C17.3258 25.6667 18.2858 24.6 18.2858 23.2858C18.2858 24.6008 19.245 25.6667 20.4283 25.6667C21.6117 25.6667 22.5717 24.6 22.5717 23.2858C22.5717 24.6008 23.5308 25.6667 24.7142 25.6667C25.8975 25.6667 26.8558 24.6017 26.8575 23.2875C26.8575 24.6017 27.8167 25.6667 29 25.6667C30.1833 25.6667 31.1425 24.6 31.1425 23.2858C31.1425 24.6008 32.1025 25.6667 33.2858 25.6667C34.4692 25.6667 35.4275 24.6017 35.4283 23.2875C35.4292 24.6017 36.3883 25.6667 37.5717 25.6667C38.755 25.6667 39.7142 24.6 39.7142 23.2858C39.7142 24.6008 40.6733 25.6667 41.8575 25.6667C43.0408 25.6667 44 24.6 44 23.2858V20.9617C44 20.7672 43.9691 20.5739 43.9083 20.3892L41.985 14.5475C41.8767 14.2183 41.5958 14 41.2808 14H16.7192Z" fill="white"/>
<path fill-rule="evenodd" clip-rule="evenodd" d="M17.3333 26.6917V33.1667H15.25C15.1395 33.1667 15.0335 33.2106 14.9554 33.2887C14.8772 33.3668 14.8333 33.4728 14.8333 33.5833V34.4167C14.8333 34.5272 14.8772 34.6331 14.9554 34.7113C15.0335 34.7894 15.1395 34.8333 15.25 34.8333H42.75C42.8605 34.8333 42.9665 34.7894 43.0446 34.7113C43.1228 34.6331 43.1667 34.5272 43.1667 34.4167V33.5833C43.1667 33.4728 43.1228 33.3668 43.0446 33.2887C42.9665 33.2106 42.8605 33.1667 42.75 33.1667H40.6667V26.6917C40.3178 26.5526 39.9956 26.3545 39.7142 26.1058C39.4981 26.2964 39.258 26.4577 39 26.5858V33.1667H19V26.5858C18.742 26.4577 18.5019 26.2964 18.2858 26.1058C18.0058 26.3517 17.6858 26.5517 17.3333 26.6917ZM39 25.0608C39.0708 24.99 39.1375 24.9142 39.2 24.8333H39V25.0608ZM40.2283 24.8333C40.3543 24.9966 40.5018 25.142 40.6667 25.2658V24.8333H40.2283ZM17.3333 25.2658C17.4991 25.143 17.6466 24.9974 17.7717 24.8333H17.3333V25.2658ZM18.8 24.8333H19V25.0608C18.9284 24.9895 18.8616 24.9135 18.8 24.8333ZM16.0833 36.5C15.9728 36.5 15.8668 36.5439 15.7887 36.622C15.7106 36.7002 15.6667 36.8062 15.6667 36.9167V43.1667C15.6667 43.3877 15.7545 43.5996 15.9107 43.7559C16.067 43.9122 16.279 44 16.5 44H41.5C41.721 44 41.933 43.9122 42.0893 43.7559C42.2455 43.5996 42.3333 43.3877 42.3333 43.1667V36.9167C42.3333 36.8062 42.2894 36.7002 42.2113 36.622C42.1332 36.5439 42.0272 36.5 41.9167 36.5H16.0833Z" fill="white"/>
<path d="M20.6667 31.0833C20.6667 30.9728 20.7106 30.8669 20.7887 30.7887C20.8669 30.7106 20.9728 30.6667 21.0833 30.6667H23.5833C23.6938 30.6667 23.7998 30.7106 23.878 30.7887C23.9561 30.8669 24 30.9728 24 31.0833V32.75C24 32.8605 23.9561 32.9665 23.878 33.0446C23.7998 33.1228 23.6938 33.1667 23.5833 33.1667H21.0833C20.9728 33.1667 20.8669 33.1228 20.7887 33.0446C20.7106 32.9665 20.6667 32.8605 20.6667 32.75V31.0833Z" fill="white"/>
<path d="M22.3333 31.9167C22.3333 31.8062 22.3772 31.7002 22.4554 31.622C22.5335 31.5439 22.6395 31.5 22.75 31.5H25.25C25.3605 31.5 25.4665 31.5439 25.5446 31.622C25.6228 31.7002 25.6667 31.8062 25.6667 31.9167V32.75C25.6667 32.8605 25.6228 32.9665 25.5446 33.0446C25.4665 33.1228 25.3605 33.1667 25.25 33.1667H22.75C22.6395 33.1667 22.5335 33.1228 22.4554 33.0446C22.3772 32.9665 22.3333 32.8605 22.3333 32.75V31.9167ZM29 31.9167C29 32.2482 28.8683 32.5661 28.6339 32.8006C28.3995 33.035 28.0815 33.1667 27.75 33.1667C27.4185 33.1667 27.1005 33.035 26.8661 32.8006C26.6317 32.5661 26.5 32.2482 26.5 31.9167C26.5 31.5852 26.6317 31.2672 26.8661 31.0328C27.1005 30.7984 27.4185 30.6667 27.75 30.6667C28.0815 30.6667 28.3995 30.7984 28.6339 31.0328C28.8683 31.2672 29 31.5852 29 31.9167Z" fill="white"/>
</svg>
