<svg width="32" height="32" viewBox="0 0 32 32" fill="none" xmlns="http://www.w3.org/2000/svg">
<circle cx="16" cy="16" r="16" fill="#44B1FF"/>
<path fill-rule="evenodd" clip-rule="evenodd" d="M7.81278 6C7.60278 6 7.41556 6.14556 7.34333 6.36444L6.06111 10.2594C6.02063 10.3826 6 10.5115 6 10.6411V12.1906C6 13.0667 6.63944 13.7778 7.42833 13.7778C8.21722 13.7778 8.85722 13.0667 8.85722 12.1906C8.85722 13.0672 9.49667 13.7778 10.2856 13.7778C11.0744 13.7778 11.7144 13.0667 11.7144 12.1906C11.7144 13.0672 12.3539 13.7778 13.1428 13.7778C13.9317 13.7778 14.5706 13.0678 14.5717 12.1917C14.5717 13.0678 15.2111 13.7778 16 13.7778C16.7889 13.7778 17.4283 13.0667 17.4283 12.1906C17.4283 13.0672 18.0683 13.7778 18.8572 13.7778C19.6461 13.7778 20.285 13.0678 20.2856 12.1917C20.2861 13.0678 20.9256 13.7778 21.7144 13.7778C22.5033 13.7778 23.1428 13.0667 23.1428 12.1906C23.1428 13.0672 23.7822 13.7778 24.5717 13.7778C25.3606 13.7778 26 13.0667 26 12.1906V10.6411C26 10.5115 25.9794 10.3826 25.9389 10.2594L24.6567 6.365C24.5844 6.14556 24.3972 6 24.1872 6H7.81278Z" fill="white"/>
<path fill-rule="evenodd" clip-rule="evenodd" d="M8.22222 14.4611V18.7778H6.83334C6.75966 18.7778 6.68901 18.807 6.63692 18.8591C6.58482 18.9112 6.55556 18.9819 6.55556 19.0556V19.6111C6.55556 19.6848 6.58482 19.7554 6.63692 19.8075C6.68901 19.8596 6.75966 19.8889 6.83334 19.8889H25.1667C25.2403 19.8889 25.311 19.8596 25.3631 19.8075C25.4152 19.7554 25.4444 19.6848 25.4444 19.6111V19.0556C25.4444 18.9819 25.4152 18.9112 25.3631 18.8591C25.311 18.807 25.2403 18.7778 25.1667 18.7778H23.7778V14.4611C23.5452 14.3684 23.3304 14.2363 23.1428 14.0706C22.9987 14.1976 22.8387 14.3052 22.6667 14.3906V18.7778H9.33334V14.3906C9.16132 14.3052 9.00125 14.1976 8.85722 14.0706C8.67056 14.2345 8.45722 14.3678 8.22222 14.4611ZM22.6667 13.3739C22.7139 13.3267 22.7583 13.2761 22.8 13.2222H22.6667V13.3739ZM23.4856 13.2222C23.5695 13.331 23.6678 13.428 23.7778 13.5106V13.2222H23.4856ZM8.22222 13.5106C8.33272 13.4287 8.43109 13.3316 8.51445 13.2222H8.22222V13.5106ZM9.2 13.2222H9.33334V13.3739C9.28561 13.3263 9.24107 13.2757 9.2 13.2222ZM7.38889 21C7.31522 21 7.24457 21.0293 7.19247 21.0814C7.14038 21.1335 7.11111 21.2041 7.11111 21.2778V25.4445C7.11111 25.5918 7.16964 25.7331 7.27383 25.8373C7.37802 25.9415 7.51933 26 7.66667 26H24.3333C24.4807 26 24.622 25.9415 24.7262 25.8373C24.8304 25.7331 24.8889 25.5918 24.8889 25.4445V21.2778C24.8889 21.2041 24.8596 21.1335 24.8075 21.0814C24.7554 21.0293 24.6848 21 24.6111 21H7.38889Z" fill="white"/>
<path d="M10.4444 17.3889C10.4444 17.3152 10.4737 17.2445 10.5258 17.1924C10.5779 17.1403 10.6485 17.1111 10.7222 17.1111H12.3889C12.4626 17.1111 12.5332 17.1403 12.5853 17.1924C12.6374 17.2445 12.6667 17.3152 12.6667 17.3889V18.5C12.6667 18.5736 12.6374 18.6443 12.5853 18.6964C12.5332 18.7485 12.4626 18.7778 12.3889 18.7778H10.7222C10.6485 18.7778 10.5779 18.7485 10.5258 18.6964C10.4737 18.6443 10.4444 18.5736 10.4444 18.5V17.3889Z" fill="white"/>
<path d="M11.5556 17.9444C11.5556 17.8707 11.5848 17.8001 11.6369 17.748C11.689 17.6959 11.7597 17.6666 11.8333 17.6666H13.5C13.5737 17.6666 13.6443 17.6959 13.6964 17.748C13.7485 17.8001 13.7778 17.8707 13.7778 17.9444V18.5C13.7778 18.5736 13.7485 18.6443 13.6964 18.6964C13.6443 18.7485 13.5737 18.7778 13.5 18.7778H11.8333C11.7597 18.7778 11.689 18.7485 11.6369 18.6964C11.5848 18.6443 11.5556 18.5736 11.5556 18.5V17.9444ZM16 17.9444C16 18.1654 15.9122 18.3774 15.7559 18.5337C15.5996 18.69 15.3877 18.7778 15.1667 18.7778C14.9457 18.7778 14.7337 18.69 14.5774 18.5337C14.4211 18.3774 14.3333 18.1654 14.3333 17.9444C14.3333 17.7234 14.4211 17.5114 14.5774 17.3552C14.7337 17.1989 14.9457 17.1111 15.1667 17.1111C15.3877 17.1111 15.5996 17.1989 15.7559 17.3552C15.9122 17.5114 16 17.7234 16 17.9444Z" fill="white"/>
</svg>
