<svg width="43" height="33" viewBox="0 0 43 33" fill="none" xmlns="http://www.w3.org/2000/svg">
<path d="M0 5.75C0 4.32446 0.566293 2.95731 1.5743 1.9493C2.58231 0.941293 3.94946 0.375 5.375 0.375H37.625C39.0505 0.375 40.4177 0.941293 41.4257 1.9493C42.4337 2.95731 43 4.32446 43 5.75V8.4375H0V5.75ZM0 13.8125V27.25C0 28.6755 0.566293 30.0427 1.5743 31.0507C2.58231 32.0587 3.94946 32.625 5.375 32.625H37.625C39.0505 32.625 40.4177 32.0587 41.4257 31.0507C42.4337 30.0427 43 28.6755 43 27.25V13.8125H0ZM8.0625 19.1875H10.75C11.4628 19.1875 12.1463 19.4706 12.6503 19.9747C13.1544 20.4787 13.4375 21.1622 13.4375 21.875V24.5625C13.4375 25.2753 13.1544 25.9588 12.6503 26.4628C12.1463 26.9669 11.4628 27.25 10.75 27.25H8.0625C7.34973 27.25 6.66615 26.9669 6.16215 26.4628C5.65815 25.9588 5.375 25.2753 5.375 24.5625V21.875C5.375 21.1622 5.65815 20.4787 6.16215 19.9747C6.66615 19.4706 7.34973 19.1875 8.0625 19.1875Z" fill="#5288C1"/>
</svg>
