<svg width="58" height="58" viewBox="0 0 58 58" fill="none" xmlns="http://www.w3.org/2000/svg">
<circle cx="29" cy="29" r="29" fill="#629EDD"/>
<path d="M24.1667 45.3333L23.5 40C23.1389 39.8611 22.7983 39.6944 22.4783 39.5C22.1583 39.3056 21.8461 39.0972 21.5417 38.875L16.5833 40.9583L12 33.0417L16.2917 29.7917C16.2639 29.5972 16.25 29.4094 16.25 29.2283V28.105C16.25 27.9239 16.2639 27.7361 16.2917 27.5417L12 24.2917L16.5833 16.375L21.5417 18.4583C21.8472 18.2361 22.1667 18.0278 22.5 17.8333C22.8333 17.6389 23.1667 17.4722 23.5 17.3333L24.1667 12H33.3333L34 17.3333C34.3611 17.4722 34.7017 17.6389 35.0217 17.8333C35.3417 18.0278 35.6539 18.2361 35.9583 18.4583L40.9167 16.375L45.5 24.2917L41.2083 27.5417C41.2361 27.7361 41.25 27.9239 41.25 28.105V29.2283C41.25 29.4094 41.2222 29.5972 41.1667 29.7917L45.4583 33.0417L40.875 40.9583L35.9583 38.875C35.6528 39.0972 35.3333 39.3056 35 39.5C34.6667 39.6944 34.3333 39.8611 34 40L33.3333 45.3333H24.1667ZM28.8333 34.5C30.4444 34.5 31.8194 33.9306 32.9583 32.7917C34.0972 31.6528 34.6667 30.2778 34.6667 28.6667C34.6667 27.0556 34.0972 25.6806 32.9583 24.5417C31.8194 23.4028 30.4444 22.8333 28.8333 22.8333C27.1944 22.8333 25.8122 23.4028 24.6867 24.5417C23.5611 25.6806 22.9989 27.0556 23 28.6667C23 30.2778 23.5622 31.6528 24.6867 32.7917C25.8111 33.9306 27.1933 34.5 28.8333 34.5Z" fill="white"/>
</svg>
