<svg width="40" height="40" viewBox="0 0 40 40" fill="none" xmlns="http://www.w3.org/2000/svg">
<circle cx="20" cy="20" r="20" transform="rotate(-180 20 20)" fill="#44B1FF"/>
<path d="M13.4794 13.6363C13.6726 13.4714 13.7778 13.2534 13.7728 13.0281C13.7678 12.8029 13.653 12.5879 13.4526 12.4286C13.2521 12.2693 12.9817 12.178 12.6983 12.1741C12.4148 12.1701 12.1405 12.2537 11.9331 12.4073L9.01561 14.7261C8.81073 14.8892 8.69565 15.1102 8.69565 15.3406C8.69565 15.5711 8.81073 15.7921 9.01561 15.9551L11.9331 18.274C12.0333 18.3594 12.1541 18.4279 12.2883 18.4755C12.4225 18.523 12.5673 18.5485 12.7142 18.5506C12.8611 18.5527 13.0071 18.5312 13.1433 18.4874C13.2795 18.4437 13.4033 18.3786 13.5072 18.296C13.611 18.2135 13.6929 18.1151 13.748 18.0068C13.803 17.8986 13.83 17.7826 13.8274 17.6658C13.8248 17.5491 13.7927 17.4339 13.7329 17.3273C13.6731 17.2206 13.5869 17.1246 13.4794 17.045L12.4291 16.2102H27.2937C27.5839 16.2102 27.8622 16.1186 28.0674 15.9555C28.2725 15.7924 28.3878 15.5713 28.3878 15.3406C28.3878 15.11 28.2725 14.8888 28.0674 14.7258C27.8622 14.5627 27.5839 14.4711 27.2937 14.4711H12.4291L13.4794 13.6363ZM26.5206 21.6827C26.3157 21.8457 26.2006 22.0667 26.2006 22.2972C26.2006 22.5276 26.3157 22.7486 26.5206 22.9116L27.5709 23.7464H12.7062C12.4161 23.7464 12.1378 23.838 11.9326 24.0011C11.7275 24.1642 11.6122 24.3854 11.6122 24.616C11.6122 24.8466 11.7275 25.0678 11.9326 25.2309C12.1378 25.3939 12.4161 25.4856 12.7062 25.4856H27.5709L26.5206 26.3203C26.4131 26.4 26.3269 26.496 26.2671 26.6026C26.2073 26.7093 26.1752 26.8244 26.1726 26.9412C26.17 27.0579 26.197 27.1739 26.252 27.2822C26.307 27.3905 26.3889 27.4888 26.4928 27.5714C26.5967 27.654 26.7205 27.7191 26.8567 27.7628C26.9929 27.8065 27.1389 27.828 27.2858 27.826C27.4327 27.8239 27.5775 27.7983 27.7117 27.7508C27.8459 27.7033 27.9667 27.6348 28.0669 27.5493L30.9844 25.2305C31.1893 25.0674 31.3043 24.8464 31.3043 24.616C31.3043 24.3856 31.1893 24.1645 30.9844 24.0015L28.0669 21.6827C27.8617 21.5198 27.5837 21.4284 27.2937 21.4284C27.0038 21.4284 26.7257 21.5198 26.5206 21.6827Z" fill="#102A45"/>
</svg>
