<svg width="40" height="40" viewBox="0 0 40 40" fill="none" xmlns="http://www.w3.org/2000/svg">
<circle cx="20" cy="20" r="20" transform="rotate(-180 20 20)" fill="#44B1FF"/>
<path d="M28.8295 19.2642H20.736V11.1706C20.736 10.9754 20.6585 10.7883 20.5205 10.6503C20.3825 10.5123 20.1954 10.4348 20.0002 10.4348C19.8051 10.4348 19.618 10.5123 19.48 10.6503C19.342 10.7883 19.2645 10.9754 19.2645 11.1706V19.2642H11.171C10.9759 19.2642 10.7888 19.3417 10.6508 19.4797C10.5128 19.6177 10.4353 19.8049 10.4353 20C10.4316 20.0956 10.4485 20.1909 10.4849 20.2795C10.5212 20.368 10.576 20.4477 10.6458 20.5133C10.7155 20.5788 10.7984 20.6286 10.8891 20.6594C10.9797 20.6902 11.0758 20.7012 11.171 20.6916H19.2645V28.8294C19.2645 29.0246 19.342 29.2117 19.48 29.3497C19.618 29.4877 19.8051 29.5652 20.0002 29.5652C20.1954 29.5652 20.3825 29.4877 20.5205 29.3497C20.6585 29.2117 20.736 29.0246 20.736 28.8294V20.7358H28.8295C29.0246 20.7358 29.2117 20.6583 29.3497 20.5203C29.4877 20.3823 29.5652 20.1951 29.5652 20C29.5652 19.8049 29.4877 19.6177 29.3497 19.4797C29.2117 19.3417 29.0246 19.2642 28.8295 19.2642Z" fill="#102A45"/>
</svg>
