<svg width="61" height="61" viewBox="0 0 61 61" fill="none" xmlns="http://www.w3.org/2000/svg">
<path d="M30.5 61C47.3447 61 61 47.3447 61 30.5C61 13.6553 47.3447 0 30.5 0C13.6553 0 0 13.6553 0 30.5C0 47.3447 13.6553 61 30.5 61Z" fill="#26A17B"/>
<path fill-rule="evenodd" clip-rule="evenodd" d="M34.1638 33.1363V33.1325C33.9542 33.1478 32.8733 33.2126 30.4619 33.2126C28.5366 33.2126 27.1812 33.1554 26.7047 33.1325V33.1382C19.2932 32.8123 13.7612 31.5217 13.7612 29.9777C13.7612 28.4355 19.2932 27.145 26.7047 26.8133V31.8534C27.1889 31.8877 28.5766 31.9697 30.4943 31.9697C32.7951 31.9697 33.9484 31.8744 34.1638 31.8553V26.8171C41.5601 27.1469 47.0787 28.4374 47.0787 29.9777C47.0787 31.5217 41.5601 32.8085 34.1638 33.1363ZM34.1638 26.2929V21.7827H44.4843V14.905H16.3842V21.7827H26.7047V26.291C18.3172 26.6761 12.0094 28.3383 12.0094 30.3284C12.0094 32.3186 18.3172 33.9789 26.7047 34.3659V48.8191H34.1638V34.3621C42.538 33.977 48.8305 32.3167 48.8305 30.3284C48.8305 28.3402 42.538 26.6799 34.1638 26.2929Z" fill="white"/>
</svg>
