<svg width="60" height="60" viewBox="0 0 60 60" fill="none" xmlns="http://www.w3.org/2000/svg">
<path d="M30 60C46.5685 60 60 46.5685 60 30C60 13.4315 46.5685 0 30 0C13.4315 0 0 13.4315 0 30C0 46.5685 13.4315 60 30 60Z" fill="#26A17B"/>
<path fill-rule="evenodd" clip-rule="evenodd" d="M33.6038 32.5931V32.5893C33.3975 32.6043 32.3344 32.6681 29.9625 32.6681C28.0687 32.6681 26.7356 32.6118 26.2669 32.5893V32.595C18.9769 32.2743 13.5356 31.005 13.5356 29.4862C13.5356 27.9693 18.9769 26.7 26.2669 26.3737V31.3312C26.7431 31.365 28.1081 31.4456 29.9944 31.4456C32.2575 31.4456 33.3919 31.3518 33.6038 31.3331V26.3775C40.8788 26.7018 46.3069 27.9712 46.3069 29.4862C46.3069 31.005 40.8788 32.2706 33.6038 32.5931ZM33.6038 25.8618V21.4256H43.755V14.6606H16.1156V21.4256H26.2669V25.86C18.0169 26.2387 11.8125 27.8737 11.8125 29.8312C11.8125 31.7887 18.0169 33.4218 26.2669 33.8025V48.0187H33.6038V33.7987C41.8406 33.42 48.03 31.7868 48.03 29.8312C48.03 27.8756 41.8406 26.2425 33.6038 25.8618Z" fill="white"/>
</svg>
